# xmcd CD database file
#
# Track frame offsets:
#	150
#	19521
#	35006
#	60543
#	76188
#	89509
#	108764
#	128653
#
# Disc length: 2415 seconds
#
# Revision: 0
# Processed by: cddbd v1.5PL3 Copyright (c) Steve Scherf et al.
# Submitted via: NeoAudio 9.9.9
#
DISCID=56096d08
DTITLE=Blood, Sweat and Tears - New Blood
DYEAR=1972
DGENRE=Jazz
TTITLE0=Down In The Flood
TTITLE1=Touch Me
TTITLE2=Alone
TTITLE3=Velvet
TTITLE4=I Can't Move No Moutains
TTITLE5=Over The Hill
TTITLE6=So Long Dixie
TTITLE7=Snow Queen - Maiden Voyage
EXTD=YEAR: 1972
EXTT0=
EXTT1=
EXTT2=
EXTT3=
EXTT4=
EXTT5=
EXTT6=
EXTT7=
PLAYORDER=
